<?xml version="1.0" standalone="no"?>
<!DOCTYPE svg PUBLIC "-//W3C//DTD SVG 20010904//EN"
 "http://www.w3.org/TR/2001/REC-SVG-20010904/DTD/svg10.dtd">
<svg version="1.0" xmlns="http://www.w3.org/2000/svg"
 width="16.000000pt" height="16.000000pt" viewBox="0 0 16.000000 16.000000"
 preserveAspectRatio="xMidYMid meet">
<metadata>
Created by potrace 1.11, written by Peter Selinger 2001-2013
</metadata>
<g transform="translate(0.000000,16.000000) scale(0.002286,-0.002286)"
fill="#000000" stroke="none">
<path d="M3360 6749 c-496 -34 -959 -170 -1375 -402 -587 -329 -1072 -844
-1356 -1443 -140 -296 -239 -615 -283 -914 -8 -58 -18 -123 -21 -145 -11 -68
-14 -556 -5 -635 14 -119 30 -233 35 -260 3 -14 12 -60 20 -103 39 -204 120
-458 210 -662 221 -496 577 -950 1000 -1271 582 -441 1255 -668 1985 -668 126
0 344 10 390 18 14 3 48 7 75 11 190 23 431 75 610 133 979 318 1674 1072
1935 2102 12 47 23 92 25 100 12 62 38 200 41 220 31 216 39 334 39 585 0 190
-8 371 -20 448 -2 12 -6 45 -10 72 -8 58 -16 114 -20 135 -2 8 -4 21 -4 28 -1
9 -315 12 -1535 12 l-1533 0 -1 -635 0 -635 26 -1 c15 0 413 0 885 -1 704 0
857 -3 857 -14 0 -26 -30 -141 -59 -224 -147 -431 -473 -762 -924 -941 -57
-23 -239 -77 -282 -85 -16 -3 -46 -9 -65 -14 -35 -9 -74 -14 -205 -30 -75 -9
-440 -6 -490 4 -16 4 -66 13 -110 22 -211 40 -420 123 -614 242 -145 88 -242
164 -358 279 -282 279 -458 594 -548 978 -65 278 -66 598 -4 875 58 258 203
575 343 752 11 15 35 44 51 65 74 94 209 229 317 316 269 217 627 365 984 406
81 9 387 7 459 -4 225 -33 421 -96 605 -193 75 -39 240 -149 286 -189 34 -30
69 -59 97 -82 15 -12 64 34 472 443 250 251 455 461 455 466 0 5 -6 13 -14 17
-7 4 -40 31 -72 59 -460 403 -1080 678 -1675 744 -52 6 -116 13 -144 16 -78 8
-370 10 -475 3z"/>
</g>
</svg>
